<?xml version="1.0" standalone="no"?>
<!DOCTYPE svg PUBLIC "-//W3C//DTD SVG 1.1//EN" "http://www.w3.org/Graphics/SVG/1.1/DTD/svg11.dtd">

<svg width="800" height="600" version="1.1" xmlns="http://www.w3.org/2000/svg">
	<ellipse stroke="black" stroke-width="1" fill="none" cx="227.5" cy="269.5" rx="30" ry="30"/>
	<text x="197.5" y="275.5" font-family="Times New Roman" font-size="20">Default</text>
	<ellipse stroke="black" stroke-width="1" fill="none" cx="492.5" cy="259.5" rx="30" ry="30"/>
	<text x="485.5" y="265.5" font-family="Times New Roman" font-size="20">\e</text>
	<ellipse stroke="black" stroke-width="1" fill="none" cx="300.5" cy="59.5" rx="30" ry="30"/>
	<text x="250.5" y="65.5" font-family="Times New Roman" font-size="20">move cursor</text>
	<ellipse stroke="black" stroke-width="1" fill="none" cx="285.5" cy="526.5" rx="30" ry="30"/>
	<text x="240.5" y="532.5" font-family="Times New Roman" font-size="20">bold on/off</text>
	<ellipse stroke="black" stroke-width="1" fill="none" cx="53.5" cy="275.5" rx="30" ry="30"/>
	<text x="18.5" y="281.5" font-family="Times New Roman" font-size="20">bold on?</text>
	<ellipse stroke="black" stroke-width="1" fill="none" cx="110.5" cy="163.5" rx="30" ry="30"/>
	<text x="78.5" y="169.5" font-family="Times New Roman" font-size="20">reg char</text>
	<ellipse stroke="black" stroke-width="1" fill="none" cx="130.5" cy="415.5" rx="30" ry="30"/>
	<text x="93.5" y="421.5" font-family="Times New Roman" font-size="20">bold char</text>
	<polygon stroke="black" stroke-width="1" points="257.479,268.369 462.521,260.631"/>
	<polygon fill="black" stroke-width="1" points="462.521,260.631 454.338,255.936 454.716,265.929"/>
	<text x="353.5" y="285.5" font-family="Times New Roman" font-size="20">\e</text>
	<path stroke="black" stroke-width="1" fill="none" d="M 328.368,70.575 A 301.801,301.801 0 0 1 482.571,231.204"/>
	<polygon fill="black" stroke-width="1" points="328.368,70.575 333.571,78.444 337.721,69.346"/>
	<text x="426.5" y="127.5" font-family="Times New Roman" font-size="20">[12;45f</text>
	<polygon stroke="black" stroke-width="1" points="290.65,87.837 237.35,241.163"/>
	<polygon fill="black" stroke-width="1" points="237.35,241.163 244.7,235.249 235.254,231.965"/>
	<text x="271.5" y="177.5" font-family="Times New Roman" font-size="20">&#949;</text>
	<path stroke="black" stroke-width="1" fill="none" d="M 488.877,289.268 A 304.705,304.705 0 0 1 313.427,515.574"/>
	<polygon fill="black" stroke-width="1" points="313.427,515.574 322.773,516.857 318.676,507.735"/>
	<text x="435.5" y="444.5" font-family="Times New Roman" font-size="20">[1m</text>
	<polygon stroke="black" stroke-width="1" points="278.896,497.236 234.104,298.764"/>
	<polygon fill="black" stroke-width="1" points="234.104,298.764 230.988,307.668 240.743,305.467"/>
	<text x="264.5" y="400.5" font-family="Times New Roman" font-size="20">&#949;</text>
	<polygon stroke="black" stroke-width="1" points="67.107,248.763 96.893,190.237"/>
	<polygon fill="black" stroke-width="1" points="96.893,190.237 88.808,195.099 97.721,199.634"/>
	<text x="55.5" y="214.5" font-family="Times New Roman" font-size="20">no</text>
	<polygon stroke="black" stroke-width="1" points="132.733,183.642 205.267,249.358"/>
	<polygon fill="black" stroke-width="1" points="205.267,249.358 202.696,240.281 195.982,247.692"/>
	<text x="174.5" y="207.5" font-family="Times New Roman" font-size="20">&#949;</text>
	<polygon stroke="black" stroke-width="1" points="67.958,301.786 116.042,389.214"/>
	<polygon fill="black" stroke-width="1" points="116.042,389.214 116.568,379.794 107.806,384.613"/>
	<text x="58.5" y="363.5" font-family="Times New Roman" font-size="20">yes</text>
	<polygon stroke="black" stroke-width="1" points="147.101,390.512 210.899,294.488"/>
	<polygon fill="black" stroke-width="1" points="210.899,294.488 202.307,298.384 210.636,303.918"/>
	<text x="185.5" y="361.5" font-family="Times New Roman" font-size="20">&#949;</text>
	<polygon stroke="black" stroke-width="1" points="197.518,270.534 83.482,274.466"/>
	<polygon fill="black" stroke-width="1" points="83.482,274.466 91.65,279.187 91.305,269.193"/>
	<text x="120.5" y="294.5" font-family="Times New Roman" font-size="20">input</text>
</svg>
